<?xml version="1.0" encoding="UTF-8" standalone="no"?><svg xmlns="http://www.w3.org/2000/svg" xmlns:xlink="http://www.w3.org/1999/xlink" contentStyleType="text/css" height="703px" preserveAspectRatio="none" style="width:1054px;height:703px;background:#FFFFFF;" version="1.1" viewBox="0 0 1054 703" width="1054px" zoomAndPan="magnify"><defs/><g><!--MD5=[ea532a13346633c7f26d88d279da24a3]
cluster settings--><g id="cluster_settings"><path d="M458,580.5 L523,580.5 A3.75,3.75 0 0 1 525.5,583 L532.5,602.7969 L657,602.7969 A2.5,2.5 0 0 1 659.5,605.2969 L659.5,677 A2.5,2.5 0 0 1 657,679.5 L458,679.5 A2.5,2.5 0 0 1 455.5,677 L455.5,583 A2.5,2.5 0 0 1 458,580.5 " fill="none" style="stroke:#000000;stroke-width:1.5;"/><line style="stroke:#000000;stroke-width:1.5;" x1="455.5" x2="532.5" y1="602.7969" y2="602.7969"/><text fill="#000000" font-family="sans-serif" font-size="14" font-weight="bold" lengthAdjust="spacing" textLength="64" x="459.5" y="595.4951">settings</text></g><!--MD5=[f772c43a2f037d63f2b38d99867c9f00]
class settings.AUTH_USER_MODEL--><g id="elem_settings.AUTH_USER_MODEL"><rect fill="#F1F1F1" height="48" id="settings.AUTH_USER_MODEL" rx="2.5" ry="2.5" style="stroke:#181818;stroke-width:0.5;" width="172" x="471.5" y="615.5"/><ellipse cx="486.5" cy="631.5" fill="#ADD1B2" rx="11" ry="11" style="stroke:#181818;stroke-width:1.0;"/><path d="M485.9688,638.4219 Q484.2188,638.4219 483.0781,637.6875 Q481.9531,636.9375 481.3906,635.5938 Q480.8438,634.2344 480.8438,632.4375 Q480.8438,630.4063 481.5,628.9531 Q482.1563,627.5 483.4375,626.7188 Q484.7188,625.9375 486.5938,625.9375 Q487.4844,625.9375 488.1563,626.125 Q488.8281,626.2969 489.5156,626.6406 L488.7031,628.6563 Q488.0781,628.3438 487.5313,628.2188 Q487,628.0938 486.5156,628.0938 Q485.3438,628.0938 484.6406,628.625 Q483.9375,629.1563 483.6406,630.1094 Q483.3438,631.0625 483.3438,632.3281 Q483.3438,634.3438 484.0625,635.3125 Q484.7813,636.2656 486.375,636.2656 Q486.9688,636.2656 487.5938,636.1094 Q488.2188,635.9531 489.0469,635.5781 L489.0469,637.7969 Q488.3125,638.1094 487.5156,638.2656 Q486.7344,638.4219 485.9688,638.4219 Z " fill="#000000"/><text fill="#000000" font-family="sans-serif" font-size="14" lengthAdjust="spacing" textLength="140" x="500.5" y="636.3467">AUTH_USER_MODEL</text><line style="stroke:#181818;stroke-width:0.5;" x1="472.5" x2="642.5" y1="647.5" y2="647.5"/><line style="stroke:#181818;stroke-width:0.5;" x1="472.5" x2="642.5" y1="655.5" y2="655.5"/></g><!--MD5=[ebbbb471f08acd7687b6b0613d9222cc]
class TransactionRelatedObject--><g id="elem_TransactionRelatedObject"><rect codeLine="2" fill="#F1F1F1" height="145.7813" id="TransactionRelatedObject" rx="2.5" ry="2.5" style="stroke:#181818;stroke-width:0.5;" width="312" x="135.5" y="15"/><ellipse cx="197.75" cy="31" fill="#ADD1B2" rx="11" ry="11" style="stroke:#181818;stroke-width:1.0;"/><path d="M197.2188,37.9219 Q195.4688,37.9219 194.3281,37.1875 Q193.2031,36.4375 192.6406,35.0938 Q192.0938,33.7344 192.0938,31.9375 Q192.0938,29.9063 192.75,28.4531 Q193.4063,27 194.6875,26.2188 Q195.9688,25.4375 197.8438,25.4375 Q198.7344,25.4375 199.4063,25.625 Q200.0781,25.7969 200.7656,26.1406 L199.9531,28.1563 Q199.3281,27.8438 198.7813,27.7188 Q198.25,27.5938 197.7656,27.5938 Q196.5938,27.5938 195.8906,28.125 Q195.1875,28.6563 194.8906,29.6094 Q194.5938,30.5625 194.5938,31.8281 Q194.5938,33.8438 195.3125,34.8125 Q196.0313,35.7656 197.625,35.7656 Q198.2188,35.7656 198.8438,35.6094 Q199.4688,35.4531 200.2969,35.0781 L200.2969,37.2969 Q199.5625,37.6094 198.7656,37.7656 Q197.9844,37.9219 197.2188,37.9219 Z " fill="#000000"/><text fill="#000000" font-family="sans-serif" font-size="14" lengthAdjust="spacing" textLength="179" x="218.25" y="35.8467">TransactionRelatedObject</text><line style="stroke:#181818;stroke-width:0.5;" x1="136.5" x2="446.5" y1="47" y2="47"/><rect fill="none" height="6" style="stroke:#C82930;stroke-width:1.0;" width="6" x="143.5" y="57.6484"/><text fill="#000000" font-family="sans-serif" font-size="14" lengthAdjust="spacing" textLength="167" x="155.5" y="63.9951">transaction : ForeignKey</text><rect fill="none" height="6" style="stroke:#C82930;stroke-width:1.0;" width="6" x="143.5" y="73.9453"/><text fill="#000000" font-family="sans-serif" font-size="14" lengthAdjust="spacing" textLength="286" x="155.5" y="80.292">related_object_content_type : ForeignKey</text><rect fill="none" height="6" style="stroke:#C82930;stroke-width:1.0;" width="6" x="143.5" y="90.2422"/><text fill="#000000" font-family="sans-serif" font-size="14" lengthAdjust="spacing" textLength="264" x="155.5" y="96.5889">related_object_id : PositiveIntegerField</text><rect fill="none" height="6" style="stroke:#C82930;stroke-width:1.0;" width="6" x="143.5" y="106.5391"/><text fill="#000000" font-family="sans-serif" font-size="14" lengthAdjust="spacing" textLength="242" x="155.5" y="112.8857">related_object : GenericForeignKey</text><rect fill="none" height="6" style="stroke:#C82930;stroke-width:1.0;" width="6" x="143.5" y="122.8359"/><text fill="#000000" font-family="sans-serif" font-size="14" lengthAdjust="spacing" textLength="185" x="155.5" y="129.1826">created_at : DateTimeField</text><rect fill="none" height="6" style="stroke:#C82930;stroke-width:1.0;" width="6" x="143.5" y="139.1328"/><text fill="#000000" font-family="sans-serif" font-size="14" lengthAdjust="spacing" textLength="191" x="155.5" y="145.4795">modified_at : DateTimeField</text><line style="stroke:#181818;stroke-width:0.5;" x1="136.5" x2="446.5" y1="152.7813" y2="152.7813"/></g><!--MD5=[44af1887837e86aa2526a2bdc4cb389a]
class TransactionType--><g id="elem_TransactionType"><rect codeLine="11" fill="#F1F1F1" height="113.1875" id="TransactionType" rx="2.5" ry="2.5" style="stroke:#181818;stroke-width:0.5;" width="217" x="7" y="583"/><ellipse cx="53.75" cy="599" fill="#ADD1B2" rx="11" ry="11" style="stroke:#181818;stroke-width:1.0;"/><path d="M53.2188,605.9219 Q51.4688,605.9219 50.3281,605.1875 Q49.2031,604.4375 48.6406,603.0938 Q48.0938,601.7344 48.0938,599.9375 Q48.0938,597.9063 48.75,596.4531 Q49.4063,595 50.6875,594.2188 Q51.9688,593.4375 53.8438,593.4375 Q54.7344,593.4375 55.4063,593.625 Q56.0781,593.7969 56.7656,594.1406 L55.9531,596.1563 Q55.3281,595.8438 54.7813,595.7188 Q54.25,595.5938 53.7656,595.5938 Q52.5938,595.5938 51.8906,596.125 Q51.1875,596.6563 50.8906,597.6094 Q50.5938,598.5625 50.5938,599.8281 Q50.5938,601.8438 51.3125,602.8125 Q52.0313,603.7656 53.625,603.7656 Q54.2188,603.7656 54.8438,603.6094 Q55.4688,603.4531 56.2969,603.0781 L56.2969,605.2969 Q55.5625,605.6094 54.7656,605.7656 Q53.9844,605.9219 53.2188,605.9219 Z " fill="#000000"/><text fill="#000000" font-family="sans-serif" font-size="14" lengthAdjust="spacing" textLength="115" x="74.25" y="603.8467">TransactionType</text><line style="stroke:#181818;stroke-width:0.5;" x1="8" x2="223" y1="615" y2="615"/><rect fill="none" height="6" style="stroke:#C82930;stroke-width:1.0;" width="6" x="15" y="625.6484"/><text fill="#000000" font-family="sans-serif" font-size="14" lengthAdjust="spacing" textLength="116" x="27" y="631.9951">name : CharField</text><rect fill="none" height="6" style="stroke:#C82930;stroke-width:1.0;" width="6" x="15" y="641.9453"/><text fill="#000000" font-family="sans-serif" font-size="14" lengthAdjust="spacing" textLength="152" x="27" y="648.292">description : TextField</text><rect fill="none" height="6" style="stroke:#C82930;stroke-width:1.0;" width="6" x="15" y="658.2422"/><text fill="#000000" font-family="sans-serif" font-size="14" lengthAdjust="spacing" textLength="185" x="27" y="664.5889">created_at : DateTimeField</text><rect fill="none" height="6" style="stroke:#C82930;stroke-width:1.0;" width="6" x="15" y="674.5391"/><text fill="#000000" font-family="sans-serif" font-size="14" lengthAdjust="spacing" textLength="191" x="27" y="680.8857">modified_at : DateTimeField</text><line style="stroke:#181818;stroke-width:0.5;" x1="8" x2="223" y1="688.1875" y2="688.1875"/></g><!--MD5=[4555bb1b0911a5adf28ce6dbe60fed2e]
class Transaction--><g id="elem_Transaction"><rect codeLine="18" fill="#F1F1F1" height="259.8594" id="Transaction" rx="2.5" ry="2.5" style="stroke:#181818;stroke-width:0.5;" width="267" x="214" y="246"/><ellipse cx="302.75" cy="262" fill="#ADD1B2" rx="11" ry="11" style="stroke:#181818;stroke-width:1.0;"/><path d="M302.2188,268.9219 Q300.4688,268.9219 299.3281,268.1875 Q298.2031,267.4375 297.6406,266.0938 Q297.0938,264.7344 297.0938,262.9375 Q297.0938,260.9063 297.75,259.4531 Q298.4063,258 299.6875,257.2188 Q300.9688,256.4375 302.8438,256.4375 Q303.7344,256.4375 304.4063,256.625 Q305.0781,256.7969 305.7656,257.1406 L304.9531,259.1563 Q304.3281,258.8438 303.7813,258.7188 Q303.25,258.5938 302.7656,258.5938 Q301.5938,258.5938 300.8906,259.125 Q300.1875,259.6563 299.8906,260.6094 Q299.5938,261.5625 299.5938,262.8281 Q299.5938,264.8438 300.3125,265.8125 Q301.0313,266.7656 302.625,266.7656 Q303.2188,266.7656 303.8438,266.6094 Q304.4688,266.4531 305.2969,266.0781 L305.2969,268.2969 Q304.5625,268.6094 303.7656,268.7656 Q302.9844,268.9219 302.2188,268.9219 Z " fill="#000000"/><text fill="#000000" font-family="sans-serif" font-size="14" lengthAdjust="spacing" textLength="81" x="323.25" y="266.8467">Transaction</text><line style="stroke:#181818;stroke-width:0.5;" x1="215" x2="480" y1="278" y2="278"/><rect fill="none" height="6" style="stroke:#C82930;stroke-width:1.0;" width="6" x="222" y="288.6484"/><text fill="#000000" font-family="sans-serif" font-size="14" lengthAdjust="spacing" textLength="187" x="234" y="294.9951">ledgers : ManyToManyField</text><rect fill="none" height="6" style="stroke:#C82930;stroke-width:1.0;" width="6" x="222" y="304.9453"/><text fill="#000000" font-family="sans-serif" font-size="14" lengthAdjust="spacing" textLength="175" x="234" y="311.292">transaction_id : UUIDField</text><rect fill="none" height="6" style="stroke:#C82930;stroke-width:1.0;" width="6" x="222" y="321.2422"/><text fill="#000000" font-family="sans-serif" font-size="14" lengthAdjust="spacing" textLength="157" x="234" y="327.5889">voids : OneToOneField</text><rect fill="none" height="6" style="stroke:#C82930;stroke-width:1.0;" width="6" x="222" y="337.5391"/><text fill="#000000" font-family="sans-serif" font-size="14" lengthAdjust="spacing" textLength="115" x="234" y="343.8857">notes : TextField</text><rect fill="none" height="6" style="stroke:#C82930;stroke-width:1.0;" width="6" x="222" y="353.8359"/><text fill="#000000" font-family="sans-serif" font-size="14" lengthAdjust="spacing" textLength="166" x="234" y="360.1826">created_by : ForeignKey</text><rect fill="none" height="6" style="stroke:#C82930;stroke-width:1.0;" width="6" x="222" y="370.1328"/><text fill="#000000" font-family="sans-serif" font-size="14" lengthAdjust="spacing" textLength="241" x="234" y="376.4795">posted_timestamp : DateTimeField</text><rect fill="none" height="6" style="stroke:#C82930;stroke-width:1.0;" width="6" x="222" y="386.4297"/><text fill="#000000" font-family="sans-serif" font-size="14" lengthAdjust="spacing" textLength="185" x="234" y="392.7764">created_at : DateTimeField</text><rect fill="none" height="6" style="stroke:#C82930;stroke-width:1.0;" width="6" x="222" y="402.7266"/><text fill="#000000" font-family="sans-serif" font-size="14" lengthAdjust="spacing" textLength="191" x="234" y="409.0732">modified_at : DateTimeField</text><rect fill="none" height="6" style="stroke:#C82930;stroke-width:1.0;" width="6" x="222" y="419.0234"/><text fill="#000000" font-family="sans-serif" font-size="14" lengthAdjust="spacing" textLength="120" x="234" y="425.3701">type : ForeignKey</text><line style="stroke:#181818;stroke-width:0.5;" x1="215" x2="480" y1="432.6719" y2="432.6719"/><rect fill="#F24D5C" height="6" style="stroke:#C82930;stroke-width:1.0;" width="6" x="222" y="443.3203"/><text fill="#000000" font-family="sans-serif" font-size="14" lengthAdjust="spacing" textLength="47" x="234" y="449.667">clean()</text><rect fill="#F24D5C" height="6" style="stroke:#C82930;stroke-width:1.0;" width="6" x="222" y="459.6172"/><text fill="#000000" font-family="sans-serif" font-size="14" lengthAdjust="spacing" textLength="62" x="234" y="465.9639">validate()</text><rect fill="#F24D5C" height="6" style="stroke:#C82930;stroke-width:1.0;" width="6" x="222" y="475.9141"/><text fill="#000000" font-family="sans-serif" font-size="14" lengthAdjust="spacing" textLength="42" x="234" y="482.2607">save()</text><rect fill="#F24D5C" height="6" style="stroke:#C82930;stroke-width:1.0;" width="6" x="222" y="492.2109"/><text fill="#000000" font-family="sans-serif" font-size="14" lengthAdjust="spacing" textLength="73" x="234" y="498.5576">summary()</text></g><!--MD5=[c2c49fb88d93ed19488b675712d5736a]
class Ledger--><g id="elem_Ledger"><rect codeLine="34" fill="#F1F1F1" height="162.0781" id="Ledger" rx="2.5" ry="2.5" style="stroke:#181818;stroke-width:0.5;" width="269" x="634" y="295"/><ellipse cx="740.25" cy="311" fill="#ADD1B2" rx="11" ry="11" style="stroke:#181818;stroke-width:1.0;"/><path d="M739.7188,317.9219 Q737.9688,317.9219 736.8281,317.1875 Q735.7031,316.4375 735.1406,315.0938 Q734.5938,313.7344 734.5938,311.9375 Q734.5938,309.9063 735.25,308.4531 Q735.9063,307 737.1875,306.2188 Q738.4688,305.4375 740.3438,305.4375 Q741.2344,305.4375 741.9063,305.625 Q742.5781,305.7969 743.2656,306.1406 L742.4531,308.1563 Q741.8281,307.8438 741.2813,307.7188 Q740.75,307.5938 740.2656,307.5938 Q739.0938,307.5938 738.3906,308.125 Q737.6875,308.6563 737.3906,309.6094 Q737.0938,310.5625 737.0938,311.8281 Q737.0938,313.8438 737.8125,314.8125 Q738.5313,315.7656 740.125,315.7656 Q740.7188,315.7656 741.3438,315.6094 Q741.9688,315.4531 742.7969,315.0781 L742.7969,317.2969 Q742.0625,317.6094 741.2656,317.7656 Q740.4844,317.9219 739.7188,317.9219 Z " fill="#000000"/><text fill="#000000" font-family="sans-serif" font-size="14" lengthAdjust="spacing" textLength="48" x="760.75" y="315.8467">Ledger</text><line style="stroke:#181818;stroke-width:0.5;" x1="635" x2="902" y1="327" y2="327"/><rect fill="none" height="6" style="stroke:#C82930;stroke-width:1.0;" width="6" x="642" y="337.6484"/><text fill="#000000" font-family="sans-serif" font-size="14" lengthAdjust="spacing" textLength="116" x="654" y="343.9951">name : CharField</text><rect fill="none" height="6" style="stroke:#C82930;stroke-width:1.0;" width="6" x="642" y="353.9453"/><text fill="#000000" font-family="sans-serif" font-size="14" lengthAdjust="spacing" textLength="201" x="654" y="360.292">number : PositiveIntegerField</text><rect fill="none" height="6" style="stroke:#C82930;stroke-width:1.0;" width="6" x="642" y="370.2422"/><text fill="#000000" font-family="sans-serif" font-size="14" lengthAdjust="spacing" textLength="152" x="654" y="376.5889">description : TextField</text><rect fill="none" height="6" style="stroke:#C82930;stroke-width:1.0;" width="6" x="642" y="386.5391"/><text fill="#000000" font-family="sans-serif" font-size="14" lengthAdjust="spacing" textLength="243" x="654" y="392.8857">increased_by_debits : BooleanField</text><rect fill="none" height="6" style="stroke:#C82930;stroke-width:1.0;" width="6" x="642" y="402.8359"/><text fill="#000000" font-family="sans-serif" font-size="14" lengthAdjust="spacing" textLength="185" x="654" y="409.1826">created_at : DateTimeField</text><rect fill="none" height="6" style="stroke:#C82930;stroke-width:1.0;" width="6" x="642" y="419.1328"/><text fill="#000000" font-family="sans-serif" font-size="14" lengthAdjust="spacing" textLength="191" x="654" y="425.4795">modified_at : DateTimeField</text><line style="stroke:#181818;stroke-width:0.5;" x1="635" x2="902" y1="432.7813" y2="432.7813"/><rect fill="#F24D5C" height="6" style="stroke:#C82930;stroke-width:1.0;" width="6" x="642" y="443.4297"/><text fill="#000000" font-family="sans-serif" font-size="14" lengthAdjust="spacing" textLength="94" x="654" y="449.7764">get_balance()</text></g><!--MD5=[c11ebd9d41b4de8a75ac8c59a30b46ba]
class LedgerEntry--><g id="elem_LedgerEntry"><rect codeLine="44" fill="#F1F1F1" height="145.7813" id="LedgerEntry" rx="2.5" ry="2.5" style="stroke:#181818;stroke-width:0.5;" width="217" x="483" y="15"/><ellipse cx="545.75" cy="31" fill="#ADD1B2" rx="11" ry="11" style="stroke:#181818;stroke-width:1.0;"/><path d="M545.2188,37.9219 Q543.4688,37.9219 542.3281,37.1875 Q541.2031,36.4375 540.6406,35.0938 Q540.0938,33.7344 540.0938,31.9375 Q540.0938,29.9063 540.75,28.4531 Q541.4063,27 542.6875,26.2188 Q543.9688,25.4375 545.8438,25.4375 Q546.7344,25.4375 547.4063,25.625 Q548.0781,25.7969 548.7656,26.1406 L547.9531,28.1563 Q547.3281,27.8438 546.7813,27.7188 Q546.25,27.5938 545.7656,27.5938 Q544.5938,27.5938 543.8906,28.125 Q543.1875,28.6563 542.8906,29.6094 Q542.5938,30.5625 542.5938,31.8281 Q542.5938,33.8438 543.3125,34.8125 Q544.0313,35.7656 545.625,35.7656 Q546.2188,35.7656 546.8438,35.6094 Q547.4688,35.4531 548.2969,35.0781 L548.2969,37.2969 Q547.5625,37.6094 546.7656,37.7656 Q545.9844,37.9219 545.2188,37.9219 Z " fill="#000000"/><text fill="#000000" font-family="sans-serif" font-size="14" lengthAdjust="spacing" textLength="83" x="566.25" y="35.8467">LedgerEntry</text><line style="stroke:#181818;stroke-width:0.5;" x1="484" x2="699" y1="47" y2="47"/><rect fill="none" height="6" style="stroke:#C82930;stroke-width:1.0;" width="6" x="491" y="57.6484"/><text fill="#000000" font-family="sans-serif" font-size="14" lengthAdjust="spacing" textLength="134" x="503" y="63.9951">ledger : ForeignKey</text><rect fill="none" height="6" style="stroke:#C82930;stroke-width:1.0;" width="6" x="491" y="73.9453"/><text fill="#000000" font-family="sans-serif" font-size="14" lengthAdjust="spacing" textLength="167" x="503" y="80.292">transaction : ForeignKey</text><rect fill="none" height="6" style="stroke:#C82930;stroke-width:1.0;" width="6" x="491" y="90.2422"/><text fill="#000000" font-family="sans-serif" font-size="14" lengthAdjust="spacing" textLength="133" x="503" y="96.5889">entry_id : UUIDField</text><rect fill="none" height="6" style="stroke:#C82930;stroke-width:1.0;" width="6" x="491" y="106.5391"/><text fill="#000000" font-family="sans-serif" font-size="14" lengthAdjust="spacing" textLength="153" x="503" y="112.8857">amount : DecimalField</text><rect fill="none" height="6" style="stroke:#C82930;stroke-width:1.0;" width="6" x="491" y="122.8359"/><text fill="#000000" font-family="sans-serif" font-size="14" lengthAdjust="spacing" textLength="185" x="503" y="129.1826">created_at : DateTimeField</text><rect fill="none" height="6" style="stroke:#C82930;stroke-width:1.0;" width="6" x="491" y="139.1328"/><text fill="#000000" font-family="sans-serif" font-size="14" lengthAdjust="spacing" textLength="191" x="503" y="145.4795">modified_at : DateTimeField</text><line style="stroke:#181818;stroke-width:0.5;" x1="484" x2="699" y1="152.7813" y2="152.7813"/></g><!--MD5=[8729c1dacb15e03be90f992d30a1c7b4]
class LedgerBalance--><g id="elem_LedgerBalance"><rect codeLine="53" fill="#F1F1F1" height="162.0781" id="LedgerBalance" rx="2.5" ry="2.5" style="stroke:#181818;stroke-width:0.5;" width="312" x="735.5" y="7"/><ellipse cx="835.75" cy="23" fill="#ADD1B2" rx="11" ry="11" style="stroke:#181818;stroke-width:1.0;"/><path d="M835.2188,29.9219 Q833.4688,29.9219 832.3281,29.1875 Q831.2031,28.4375 830.6406,27.0938 Q830.0938,25.7344 830.0938,23.9375 Q830.0938,21.9063 830.75,20.4531 Q831.4063,19 832.6875,18.2188 Q833.9688,17.4375 835.8438,17.4375 Q836.7344,17.4375 837.4063,17.625 Q838.0781,17.7969 838.7656,18.1406 L837.9531,20.1563 Q837.3281,19.8438 836.7813,19.7188 Q836.25,19.5938 835.7656,19.5938 Q834.5938,19.5938 833.8906,20.125 Q833.1875,20.6563 832.8906,21.6094 Q832.5938,22.5625 832.5938,23.8281 Q832.5938,25.8438 833.3125,26.8125 Q834.0313,27.7656 835.625,27.7656 Q836.2188,27.7656 836.8438,27.6094 Q837.4688,27.4531 838.2969,27.0781 L838.2969,29.2969 Q837.5625,29.6094 836.7656,29.7656 Q835.9844,29.9219 835.2188,29.9219 Z " fill="#000000"/><text fill="#000000" font-family="sans-serif" font-size="14" lengthAdjust="spacing" textLength="103" x="856.25" y="27.8467">LedgerBalance</text><line style="stroke:#181818;stroke-width:0.5;" x1="736.5" x2="1046.5" y1="39" y2="39"/><rect fill="none" height="6" style="stroke:#C82930;stroke-width:1.0;" width="6" x="743.5" y="49.6484"/><text fill="#000000" font-family="sans-serif" font-size="14" lengthAdjust="spacing" textLength="134" x="755.5" y="55.9951">ledger : ForeignKey</text><rect fill="none" height="6" style="stroke:#C82930;stroke-width:1.0;" width="6" x="743.5" y="65.9453"/><text fill="#000000" font-family="sans-serif" font-size="14" lengthAdjust="spacing" textLength="286" x="755.5" y="72.292">related_object_content_type : ForeignKey</text><rect fill="none" height="6" style="stroke:#C82930;stroke-width:1.0;" width="6" x="743.5" y="82.2422"/><text fill="#000000" font-family="sans-serif" font-size="14" lengthAdjust="spacing" textLength="264" x="755.5" y="88.5889">related_object_id : PositiveIntegerField</text><rect fill="none" height="6" style="stroke:#C82930;stroke-width:1.0;" width="6" x="743.5" y="98.5391"/><text fill="#000000" font-family="sans-serif" font-size="14" lengthAdjust="spacing" textLength="242" x="755.5" y="104.8857">related_object : GenericForeignKey</text><rect fill="none" height="6" style="stroke:#C82930;stroke-width:1.0;" width="6" x="743.5" y="114.8359"/><text fill="#000000" font-family="sans-serif" font-size="14" lengthAdjust="spacing" textLength="154" x="755.5" y="121.1826">balance : DecimalField</text><rect fill="none" height="6" style="stroke:#C82930;stroke-width:1.0;" width="6" x="743.5" y="131.1328"/><text fill="#000000" font-family="sans-serif" font-size="14" lengthAdjust="spacing" textLength="185" x="755.5" y="137.4795">created_at : DateTimeField</text><rect fill="none" height="6" style="stroke:#C82930;stroke-width:1.0;" width="6" x="743.5" y="147.4297"/><text fill="#000000" font-family="sans-serif" font-size="14" lengthAdjust="spacing" textLength="191" x="755.5" y="153.7764">modified_at : DateTimeField</text><line style="stroke:#181818;stroke-width:0.5;" x1="736.5" x2="1046.5" y1="161.0781" y2="161.0781"/></g><!--MD5=[ee788e3a3ec51969370a71debb50d618]
class TransactionQuerySet--><g id="elem_TransactionQuerySet"><rect fill="#F1F1F1" height="48" id="TransactionQuerySet" rx="2.5" ry="2.5" style="stroke:#181818;stroke-width:0.5;" width="177" x="259" y="615.5"/><ellipse cx="274" cy="631.5" fill="#ADD1B2" rx="11" ry="11" style="stroke:#181818;stroke-width:1.0;"/><path d="M273.4688,638.4219 Q271.7188,638.4219 270.5781,637.6875 Q269.4531,636.9375 268.8906,635.5938 Q268.3438,634.2344 268.3438,632.4375 Q268.3438,630.4063 269,628.9531 Q269.6563,627.5 270.9375,626.7188 Q272.2188,625.9375 274.0938,625.9375 Q274.9844,625.9375 275.6563,626.125 Q276.3281,626.2969 277.0156,626.6406 L276.2031,628.6563 Q275.5781,628.3438 275.0313,628.2188 Q274.5,628.0938 274.0156,628.0938 Q272.8438,628.0938 272.1406,628.625 Q271.4375,629.1563 271.1406,630.1094 Q270.8438,631.0625 270.8438,632.3281 Q270.8438,634.3438 271.5625,635.3125 Q272.2813,636.2656 273.875,636.2656 Q274.4688,636.2656 275.0938,636.1094 Q275.7188,635.9531 276.5469,635.5781 L276.5469,637.7969 Q275.8125,638.1094 275.0156,638.2656 Q274.2344,638.4219 273.4688,638.4219 Z " fill="#000000"/><text fill="#000000" font-family="sans-serif" font-size="14" lengthAdjust="spacing" textLength="145" x="288" y="636.3467">TransactionQuerySet</text><line style="stroke:#181818;stroke-width:0.5;" x1="260" x2="435" y1="647.5" y2="647.5"/><line style="stroke:#181818;stroke-width:0.5;" x1="260" x2="435" y1="655.5" y2="655.5"/></g><!--MD5=[1262007c92fc22fda6afe50cf083c24f]
link TransactionRelatedObject to Transaction--><g id="link_TransactionRelatedObject_Transaction"><path codeLine="63" d="M305.63,161.17 C310.67,186.9 316.51,216.73 322.2,245.79 " fill="none" id="TransactionRelatedObject-Transaction" style="stroke:#181818;stroke-width:1.0;"/><text fill="#000000" font-family="sans-serif" font-size="13" lengthAdjust="spacing" textLength="72" x="317.5" y="212.0669">transaction</text><text fill="#000000" font-family="sans-serif" font-size="13" lengthAdjust="spacing" textLength="7" x="299.6432" y="180.9425">*</text><text fill="#000000" font-family="sans-serif" font-size="13" lengthAdjust="spacing" textLength="8" x="312.5061" y="234.9034">1</text></g><!--MD5=[e8100407711028fa912b9a6221ca8c01]
link Transaction to Transaction--><g id="link_Transaction_Transaction"><path codeLine="65" d="M481.33,347.2 C501.96,351.55 516,361.15 516,376 C516,390.85 501.96,400.45 481.33,404.8 " fill="none" id="Transaction-Transaction" style="stroke:#181818;stroke-width:1.0;"/><text fill="#000000" font-family="sans-serif" font-size="13" lengthAdjust="spacing" textLength="33" x="522" y="380.5669">voids</text><text fill="#000000" font-family="sans-serif" font-size="13" lengthAdjust="spacing" textLength="8" x="488.8676" y="342.2892">1</text><text fill="#000000" font-family="sans-serif" font-size="13" lengthAdjust="spacing" textLength="8" x="488.8676" y="403.0392">1</text></g><!--MD5=[220a1facb698331f902ba28599249992]
link Transaction to TransactionType--><g id="link_Transaction_TransactionType"><path codeLine="66" d="M232.86,506.22 C208.89,533.24 184.84,560.35 164.8,582.93 " fill="none" id="Transaction-TransactionType" style="stroke:#181818;stroke-width:1.0;"/><text fill="#000000" font-family="sans-serif" font-size="13" lengthAdjust="spacing" textLength="28" x="205.5" y="549.0669">type</text><text fill="#000000" font-family="sans-serif" font-size="13" lengthAdjust="spacing" textLength="7" x="219.3992" y="525.8259">*</text><text fill="#000000" font-family="sans-serif" font-size="13" lengthAdjust="spacing" textLength="8" x="162.6041" y="571.7844">1</text></g><!--MD5=[f2d67720ead2ee2c63ab5a62cf4954d1]
link Transaction to settings.AUTH_USER_MODEL--><g id="link_Transaction_settings.AUTH_USER_MODEL"><path codeLine="67" d="M451.27,506.22 C484.96,548.17 518.81,590.32 538.96,615.42 " fill="none" id="Transaction-settings.AUTH_USER_MODEL" style="stroke:#181818;stroke-width:1.0;"/><text fill="#000000" font-family="sans-serif" font-size="13" lengthAdjust="spacing" textLength="71" x="484.5" y="549.0669">created_by</text><text fill="#000000" font-family="sans-serif" font-size="13" lengthAdjust="spacing" textLength="7" x="449.7535" y="525.8259">*</text><text fill="#000000" font-family="sans-serif" font-size="13" lengthAdjust="spacing" textLength="8" x="525.1841" y="604.4115">1</text></g><!--MD5=[f707ee0c4e7e4c08b1c762ba61212ef1]
link Transaction to TransactionQuerySet--><g id="link_Transaction_TransactionQuerySet"><path codeLine="68" d="M347.5,506.22 C347.5,548.17 347.5,590.32 347.5,615.42 " fill="none" id="Transaction-TransactionQuerySet" style="stroke:#181818;stroke-width:1.0;"/><text fill="#000000" font-family="sans-serif" font-size="13" lengthAdjust="spacing" textLength="46" x="348.5" y="549.0669">objects</text><text fill="#000000" font-family="sans-serif" font-size="13" lengthAdjust="spacing" textLength="8" x="339.2813" y="525.8259">1</text><text fill="#000000" font-family="sans-serif" font-size="13" lengthAdjust="spacing" textLength="8" x="338.475" y="604.4115">1</text></g><!--MD5=[ac76c08d26b1f01c583ea4da8993aea0]
link LedgerEntry to Ledger--><g id="link_LedgerEntry_Ledger"><path codeLine="70" d="M636.16,161.17 C661.36,201.88 692.89,252.83 718.86,294.79 " fill="none" id="LedgerEntry-Ledger" style="stroke:#181818;stroke-width:1.0;"/><text fill="#000000" font-family="sans-serif" font-size="13" lengthAdjust="spacing" textLength="121" x="669.5" y="212.0669">LedgerEntry.ledger</text><text fill="#000000" font-family="sans-serif" font-size="13" lengthAdjust="spacing" textLength="7" x="633.0831" y="180.9425">*</text><text fill="#000000" font-family="sans-serif" font-size="13" lengthAdjust="spacing" textLength="8" x="706.0827" y="283.9586">1</text></g><!--MD5=[1d26790020261e96f1a5d368cfab28fc]
link LedgerEntry to Transaction--><g id="link_LedgerEntry_Transaction"><path codeLine="71" d="M529.93,161.17 C507.98,186.9 482.53,216.73 457.74,245.79 " fill="none" id="LedgerEntry-Transaction" style="stroke:#181818;stroke-width:1.0;"/><text fill="#000000" font-family="sans-serif" font-size="13" lengthAdjust="spacing" textLength="153" x="491.5" y="212.0669">LedgerEntry.transaction</text><text fill="#000000" font-family="sans-serif" font-size="13" lengthAdjust="spacing" textLength="7" x="516.728" y="180.9425">*</text><text fill="#000000" font-family="sans-serif" font-size="13" lengthAdjust="spacing" textLength="8" x="455.882" y="234.9034">1</text></g><!--MD5=[c704a396dd8fb6732d0176ace9b5a118]
link LedgerBalance to Ledger--><g id="link_LedgerBalance_Ledger"><path codeLine="73" d="M857.07,169.05 C840.16,208.38 819.83,255.64 802.92,294.97 " fill="none" id="LedgerBalance-Ledger" style="stroke:#181818;stroke-width:1.0;"/><text fill="#000000" font-family="sans-serif" font-size="13" lengthAdjust="spacing" textLength="40" x="841.5" y="212.0669">ledger</text><text fill="#000000" font-family="sans-serif" font-size="13" lengthAdjust="spacing" textLength="7" x="846.5733" y="189.2826">*</text><text fill="#000000" font-family="sans-serif" font-size="13" lengthAdjust="spacing" textLength="8" x="797.7243" y="283.8781">1</text></g><!--MD5=[3a5c68ec4b4cc8a6376498bc24ac1bd0]
@startuml Models

class TransactionRelatedObject {
    - transaction : ForeignKey
    - related_object_content_type : ForeignKey
    - related_object_id : PositiveIntegerField
    - related_object : GenericForeignKey
    - created_at : DateTimeField
    - modified_at : DateTimeField
}

class TransactionType {
    - name : CharField
    - description : TextField
    - created_at : DateTimeField
    - modified_at : DateTimeField
}

class Transaction {
    - ledgers : ManyToManyField
    - transaction_id : UUIDField
    - voids : OneToOneField
    - notes : TextField
    - created_by : ForeignKey
    - posted_timestamp : DateTimeField
    - created_at : DateTimeField
    - modified_at : DateTimeField
    - type : ForeignKey
    - clean()
    - validate()
    - save()
    - summary()
}

class Ledger {
    - name : CharField
    - number : PositiveIntegerField
    - description : TextField
    - increased_by_debits : BooleanField
    - created_at : DateTimeField
    - modified_at : DateTimeField
    - get_balance()
}

class LedgerEntry {
    - ledger : ForeignKey
    - transaction : ForeignKey
    - entry_id : UUIDField
    - amount : DecimalField
    - created_at : DateTimeField
    - modified_at : DateTimeField
}

class LedgerBalance {
    - ledger : ForeignKey
    - related_object_content_type : ForeignKey
    - related_object_id : PositiveIntegerField
    - related_object : GenericForeignKey
    - balance : DecimalField
    - created_at : DateTimeField
    - modified_at : DateTimeField
}

TransactionRelatedObject "*" - - "1" Transaction : transaction

Transaction "1" - - "1" Transaction : voids
Transaction "*" - - "1" TransactionType : type
Transaction "*" - - "1" settings.AUTH_USER_MODEL : created_by
Transaction "1" - - "1" TransactionQuerySet : objects

LedgerEntry "*" - - "1" Ledger : LedgerEntry.ledger
LedgerEntry "*" - - "1" Transaction : LedgerEntry.transaction

LedgerBalance "*" - - "1" Ledger : ledger

@enduml

PlantUML version 1.2022.7(Mon Aug 22 18:01:30 BST 2022)
(GPL source distribution)
Java Runtime: OpenJDK Runtime Environment
JVM: OpenJDK 64-Bit Server VM
Default Encoding: UTF-8
Language: en
Country: GB
--></g></svg>